<svg width="223.958008" height="57.475464" viewBox="0 0 223.958 57.4755" fill="none" xmlns="http://www.w3.org/2000/svg" xmlns:xlink="http://www.w3.org/1999/xlink">
    <desc>
        Created with Pixso.
    </desc>
    <defs>
        <linearGradient x1="-1.037258" y1="54.982552" x2="28.425137" y2="-2.697309" id="paint_linear_2698_2339_0" gradientUnits="userSpaceOnUse">
            <stop stop-color="#0C47A6"/>
            <stop offset="1.000000" stop-color="#B8F0FF"/>
        </linearGradient>
        <linearGradient x1="5.185886" y1="58.874763" x2="34.648281" y2="1.194902" id="paint_linear_2698_2340_0" gradientUnits="userSpaceOnUse">
            <stop stop-color="#3272D9"/>
            <stop offset="1.000000" stop-color="#B8F0FF"/>
        </linearGradient>
        <linearGradient x1="11.410984" y1="62.351570" x2="40.873379" y2="4.671709" id="paint_linear_2698_2341_0" gradientUnits="userSpaceOnUse">
            <stop stop-color="#5493F7"/>
            <stop offset="1.000000" stop-color="#B8F0FF"/>
        </linearGradient>
    </defs>
    <path id="Rectangle 306" d="M1.88 14.87L25.73 3.55C26.62 3.12 27.31 3.59 27.3 4.63L27.3 32.15C27.3 33.32 26.43 34.75 25.42 35.23L1.57 46.55C0.68 46.97 0 46.5 0 45.47L0 17.95C0 16.77 0.87 15.35 1.88 14.87Z" fill="url(#paint_linear_2698_2339_0)" fill-opacity="1.000000" fill-rule="nonzero"/>
    <path id="Rectangle 307" d="M8.1 18.76L31.95 7.44C32.84 7.02 33.53 7.49 33.53 8.52L33.53 36.04C33.53 37.21 32.65 38.64 31.64 39.12L7.8 50.44C6.9 50.86 6.22 50.4 6.22 49.36L6.22 21.84C6.22 20.67 7.09 19.24 8.1 18.76Z" fill="url(#paint_linear_2698_2340_0)" fill-opacity="1.000000" fill-rule="nonzero"/>
    <path id="Rectangle 308" d="M14.33 22.24L38.17 10.92C39.07 10.49 39.75 10.96 39.75 12L39.75 39.52C39.75 40.69 38.88 42.12 37.87 42.6L14.02 53.92C13.13 54.34 12.44 53.87 12.44 52.84L12.44 25.32C12.44 24.14 13.32 22.72 14.33 22.24Z" fill="url(#paint_linear_2698_2341_0)" fill-opacity="1.000000" fill-rule="nonzero"/>
    <path id="Vector" d="M181.12 13.99L182.97 13.99C182.97 14.51 182.84 14.98 182.58 15.38C182.33 15.78 181.97 16.1 181.5 16.33C181.03 16.56 180.47 16.67 179.83 16.67C178.86 16.67 178.1 16.42 177.53 15.92C176.97 15.42 176.69 14.78 176.69 13.99L178.53 13.99Q178.53 14.23 178.61 14.45L178.61 14.45Q178.68 14.65 178.82 14.84C179.02 15.09 179.36 15.21 179.83 15.21C180.3 15.21 180.63 15.09 180.83 14.84Q180.97 14.65 181.04 14.45Q181.12 14.23 181.12 13.99ZM65.51 14.55L65.51 27.8L62.8 27.8L62.8 16.69L57.52 16.69L57.52 27.8L54.81 27.8L54.81 14.55L65.51 14.55ZM72.99 21.8L72.99 21.19C72.99 20.88 72.94 20.61 72.84 20.38C72.74 20.15 72.58 19.97 72.36 19.84Q72.05 19.65 71.54 19.65C71.25 19.65 71 19.7 70.79 19.81C70.58 19.9 70.42 20.05 70.3 20.24Q70.29 20.25 70.28 20.26L70.28 20.27Q70.13 20.53 70.13 20.88L67.53 20.88C67.53 20.46 67.62 20.07 67.82 19.69C68.01 19.31 68.29 18.98 68.66 18.7C69.02 18.41 69.46 18.18 69.97 18.01C70.48 17.85 71.05 17.77 71.68 17.77C72.44 17.77 73.12 17.9 73.71 18.15C74.3 18.41 74.76 18.79 75.1 19.3Q75.61 20.06 75.61 21.21L75.61 25.42Q75.61 26.23 75.71 26.75C75.78 27.09 75.88 27.39 76 27.64L76 27.8L73.37 27.8C73.25 27.55 73.16 27.24 73.1 26.87C73 26.98 72.9 27.09 72.79 27.19C72.54 27.42 72.24 27.61 71.88 27.76C71.53 27.91 71.11 27.98 70.62 27.98C70 27.98 69.43 27.86 68.93 27.61C68.43 27.35 68.03 27 67.74 26.56Q67.61 26.36 67.52 26.15Q67.3 25.63 67.3 25.03C67.3 24.52 67.4 24.06 67.59 23.66Q67.69 23.46 67.81 23.28L67.81 23.28Q68.07 22.92 68.44 22.65C68.82 22.37 69.29 22.16 69.86 22.02Q70.71 21.8 71.83 21.8L72.99 21.8ZM86.41 22.77L86.41 22.96C86.41 23.67 86.32 24.34 86.16 24.95C85.99 25.56 85.75 26.1 85.43 26.55C85.11 27 84.72 27.35 84.24 27.61C83.77 27.86 83.23 27.98 82.61 27.98C82.02 27.98 81.5 27.86 81.06 27.62C80.75 27.44 80.46 27.22 80.22 26.94L80.22 31.58L77.62 31.58L77.62 17.95L80.03 17.95L80.13 18.92C80.39 18.59 80.7 18.33 81.05 18.13Q81.71 17.77 82.6 17.77C83.22 17.77 83.76 17.89 84.23 18.12C84.71 18.36 85.1 18.7 85.42 19.14Q85.91 19.81 86.16 20.73Q86.41 21.65 86.41 22.77ZM93.3 21.8L93.3 21.19Q93.3 20.72 93.15 20.38C93.05 20.15 92.89 19.97 92.67 19.84Q92.35 19.65 91.85 19.65Q91.41 19.65 91.1 19.81C90.89 19.9 90.72 20.05 90.61 20.24C90.49 20.42 90.44 20.63 90.44 20.88L87.84 20.88C87.84 20.46 87.93 20.07 88.12 19.69C88.32 19.31 88.6 18.98 88.97 18.7C89.33 18.41 89.77 18.18 90.27 18.01C90.79 17.85 91.36 17.77 91.99 17.77C92.75 17.77 93.42 17.9 94.01 18.15C94.6 18.41 95.07 18.79 95.41 19.3C95.75 19.81 95.92 20.44 95.92 21.21L95.92 25.42Q95.92 26.23 96.02 26.75C96.09 27.09 96.18 27.39 96.31 27.64L96.31 27.8L93.68 27.8Q93.5 27.42 93.4 26.87C93.31 26.98 93.21 27.09 93.1 27.19C92.85 27.42 92.55 27.61 92.19 27.76Q91.66 27.98 90.93 27.98C90.31 27.98 89.74 27.86 89.24 27.61C88.74 27.35 88.34 27 88.04 26.56C87.75 26.11 87.61 25.6 87.61 25.03C87.61 24.52 87.71 24.06 87.9 23.66Q88 23.46 88.12 23.28Q88.37 22.92 88.75 22.65C89.13 22.37 89.6 22.16 90.17 22.02Q91.02 21.8 92.14 21.8L93.3 21.8ZM123.42 27.98C122.66 27.98 121.98 27.86 121.38 27.62C120.78 27.37 120.26 27.02 119.84 26.59C119.43 26.15 119.11 25.64 118.88 25.07C118.66 24.49 118.55 23.87 118.55 23.21L118.55 22.85C118.55 22.1 118.66 21.42 118.87 20.8C119.08 20.18 119.38 19.64 119.77 19.19Q120.01 18.91 120.29 18.69L120.29 18.69Q120.71 18.36 121.22 18.14C121.78 17.89 122.42 17.77 123.13 17.77Q124.17 17.77 124.97 18.11C125.51 18.35 125.96 18.67 126.32 19.1C126.69 19.52 126.96 20.03 127.15 20.63Q127.43 21.51 127.43 22.59L127.43 23.68L121.19 23.68C121.22 23.9 121.26 24.11 121.32 24.3C121.44 24.64 121.6 24.93 121.8 25.17C122.01 25.41 122.27 25.6 122.56 25.73C122.86 25.87 123.2 25.93 123.58 25.93C124.05 25.93 124.49 25.84 124.89 25.66C125.3 25.47 125.65 25.19 125.95 24.81L127.21 26.2C127.01 26.49 126.73 26.78 126.37 27.05C126.02 27.33 125.6 27.55 125.11 27.73C124.61 27.9 124.05 27.98 123.42 27.98ZM223.95 22.77L223.95 22.96C223.95 23.67 223.87 24.34 223.7 24.95C223.54 25.56 223.3 26.1 222.98 26.55C222.66 27 222.26 27.35 221.79 27.61C221.32 27.86 220.77 27.98 220.16 27.98C219.56 27.98 219.05 27.86 218.61 27.62Q218.45 27.53 218.3 27.42L218.3 27.42Q218.01 27.22 217.77 26.94L217.77 31.58L215.16 31.58L215.16 17.95L217.58 17.95L217.67 18.92C217.94 18.59 218.25 18.33 218.6 18.13Q219.26 17.77 220.14 17.77Q221.07 17.77 221.78 18.12Q222.05 18.26 222.29 18.44L222.29 18.44Q222.67 18.73 222.97 19.14C223.29 19.59 223.54 20.11 223.7 20.73C223.87 21.34 223.95 22.02 223.95 22.77ZM99.05 17.95L106.41 17.95L106.41 27.8L103.81 27.8L103.81 20.01L101.5 20.01L101.34 22.92Q101.29 23.99 101.12 24.8C101 25.34 100.85 25.8 100.65 26.18C100.47 26.56 100.24 26.87 99.98 27.12C99.72 27.35 99.41 27.53 99.06 27.63Q98.55 27.8 97.93 27.8L97.13 27.8L97.1 25.73L97.44 25.7C97.63 25.68 97.8 25.62 97.94 25.53C98.1 25.44 98.22 25.3 98.32 25.12C98.43 24.94 98.52 24.71 98.59 24.44C98.67 24.16 98.72 23.83 98.77 23.46C98.81 23.08 98.85 22.65 98.87 22.16L99.05 17.95ZM109.54 17.95L116.91 17.95L116.91 27.8L114.3 27.8L114.3 20.01L111.99 20.01L111.84 22.92Q111.78 23.99 111.61 24.8C111.5 25.34 111.34 25.8 111.15 26.18C110.97 26.56 110.74 26.87 110.47 27.12C110.22 27.35 109.91 27.53 109.56 27.63C109.22 27.74 108.84 27.8 108.42 27.8L107.63 27.8L107.6 25.73L107.94 25.7C108.13 25.68 108.3 25.62 108.44 25.53C108.59 25.44 108.72 25.3 108.82 25.12C108.93 24.94 109.02 24.71 109.09 24.44C109.16 24.16 109.22 23.83 109.26 23.46C109.31 23.08 109.35 22.65 109.36 22.16L109.54 17.95ZM130.03 17.95L137.39 17.95L137.39 27.8L134.79 27.8L134.79 20.01L132.48 20.01L132.33 22.92Q132.27 23.99 132.1 24.8C131.99 25.34 131.83 25.8 131.64 26.18C131.45 26.56 131.23 26.87 130.96 27.12C130.7 27.35 130.4 27.53 130.05 27.63C129.71 27.74 129.33 27.8 128.91 27.8L128.12 27.8L128.09 25.73L128.42 25.7C128.62 25.68 128.78 25.62 128.93 25.53C129.08 25.44 129.21 25.3 129.31 25.12C129.42 24.94 129.51 24.71 129.58 24.44C129.65 24.16 129.71 23.83 129.75 23.46C129.8 23.08 129.83 22.65 129.85 22.16L130.03 17.95ZM142.19 20.87L144.04 20.87C144.93 20.87 145.69 21.02 146.32 21.32C146.95 21.61 147.43 22.02 147.77 22.54C148.1 23.06 148.27 23.66 148.27 24.35Q148.27 24.99 148.06 25.54L148.06 25.54Q148.02 25.64 147.98 25.73C147.79 26.15 147.52 26.52 147.16 26.82C146.8 27.13 146.36 27.37 145.83 27.54Q145.05 27.8 144.04 27.8L139.58 27.8L139.58 17.95L142.19 17.95L142.19 20.87ZM152.34 17.95L152.34 21.93L155.59 21.93L155.59 17.95L158.2 17.95L158.2 27.8L155.59 27.8L155.59 23.97L152.34 23.97L152.34 27.8L149.73 27.8L149.73 17.95L152.34 17.95ZM163 20.87L164.86 20.87C165.75 20.87 166.51 21.02 167.13 21.32Q167.95 21.69 168.43 22.32Q168.51 22.43 168.58 22.54C168.92 23.06 169.08 23.66 169.08 24.35C169.08 24.85 168.99 25.31 168.79 25.73C168.61 26.15 168.33 26.52 167.97 26.82C167.61 27.13 167.17 27.37 166.64 27.54C166.12 27.71 165.52 27.8 164.86 27.8L160.39 27.8L160.39 17.95L163 17.95L163 20.87ZM173.26 17.95L173.26 27.8L170.66 27.8L170.66 17.95L173.26 17.95ZM178.14 24.14L181.41 17.95L184.02 17.95L184.02 27.8L181.41 27.8L181.41 21.6L178.14 27.8L175.53 27.8L175.53 17.95L178.14 17.95L178.14 24.14ZM193.4 21.84L193.4 27.8L190.8 27.8L190.8 17.95L194.03 17.95L196.57 24.79L199.14 17.95L202.41 17.95L202.41 27.8L199.81 27.8L199.81 21.71L197.45 27.8L195.7 27.8L193.4 21.84ZM207.28 24.14L210.56 17.95L213.16 17.95L213.16 27.8L210.56 27.8L210.56 21.6L207.28 27.8L204.68 27.8L204.68 17.95L207.28 17.95L207.28 24.14ZM121.22 21.94L124.87 21.94L124.87 21.74C124.87 21.37 124.81 21.05 124.68 20.76C124.55 20.47 124.36 20.24 124.1 20.07C123.84 19.9 123.51 19.82 123.1 19.82C122.76 19.82 122.46 19.89 122.22 20.04C121.97 20.2 121.77 20.41 121.61 20.68C121.46 20.95 121.35 21.28 121.27 21.65Q121.24 21.79 121.22 21.94ZM80.22 20.82L80.22 24.91C80.36 25.21 80.55 25.44 80.81 25.62C81.1 25.83 81.48 25.93 81.95 25.93C82.29 25.93 82.58 25.86 82.81 25.71C83.05 25.55 83.24 25.33 83.38 25.06C83.53 24.79 83.64 24.47 83.7 24.11Q83.8 23.58 83.8 22.96L83.8 22.77C83.8 22.35 83.76 21.96 83.69 21.61C83.62 21.25 83.52 20.94 83.36 20.67C83.22 20.41 83.03 20.2 82.79 20.05C82.55 19.9 82.27 19.83 81.93 19.83C81.57 19.83 81.27 19.88 81.02 20C80.77 20.11 80.57 20.28 80.41 20.5Q80.3 20.65 80.22 20.82ZM217.77 20.82L217.77 24.91C217.9 25.21 218.1 25.44 218.35 25.62C218.64 25.83 219.02 25.93 219.49 25.93C219.83 25.93 220.12 25.86 220.36 25.71C220.59 25.55 220.78 25.33 220.93 25.06C221.08 24.79 221.18 24.47 221.24 24.11Q221.34 23.58 221.34 22.96L221.34 22.77C221.34 22.35 221.31 21.96 221.23 21.61C221.17 21.25 221.06 20.94 220.91 20.67C220.77 20.41 220.57 20.2 220.33 20.05C220.1 19.9 219.81 19.83 219.47 19.83C219.12 19.83 218.81 19.88 218.56 20C218.31 20.11 218.11 20.28 217.96 20.5C217.88 20.6 217.82 20.71 217.77 20.82ZM142.19 22.92L142.19 25.76L144.04 25.76C144.43 25.76 144.75 25.7 144.98 25.57C145.22 25.44 145.4 25.26 145.51 25.05Q145.57 24.93 145.61 24.81Q145.68 24.59 145.68 24.36Q145.68 24.04 145.56 23.77L145.56 23.77Q145.54 23.71 145.51 23.65C145.4 23.43 145.22 23.25 144.98 23.12Q144.63 22.92 144.04 22.92L142.19 22.92ZM163 22.92L163 25.76L164.86 25.76C165.25 25.76 165.56 25.7 165.8 25.57C166.04 25.44 166.21 25.26 166.32 25.05Q166.38 24.93 166.42 24.81Q166.49 24.59 166.49 24.36Q166.49 24.04 166.38 23.77L166.38 23.77Q166.35 23.71 166.32 23.65C166.21 23.43 166.04 23.25 165.8 23.12C165.56 22.99 165.25 22.92 164.86 22.92L163 22.92ZM72.99 25.02L72.99 23.28L71.9 23.28C71.56 23.28 71.26 23.32 71.01 23.4C70.75 23.48 70.55 23.59 70.38 23.74C70.22 23.88 70.1 24.04 70.02 24.23C69.95 24.42 69.91 24.63 69.91 24.85C69.91 25.07 69.96 25.28 70.07 25.46C70.17 25.64 70.32 25.77 70.51 25.88C70.7 25.98 70.93 26.02 71.19 26.02C71.58 26.02 71.92 25.94 72.21 25.79C72.5 25.63 72.72 25.44 72.88 25.2C72.92 25.14 72.96 25.08 72.99 25.02ZM93.3 25.02L93.3 23.28L92.21 23.28C91.86 23.28 91.57 23.32 91.31 23.4C91.06 23.48 90.85 23.59 90.69 23.74C90.53 23.88 90.41 24.04 90.33 24.23C90.26 24.42 90.22 24.63 90.22 24.85C90.22 25.07 90.27 25.28 90.37 25.46C90.48 25.64 90.62 25.77 90.82 25.88C91.01 25.98 91.24 26.02 91.49 26.02C91.89 26.02 92.23 25.94 92.52 25.79C92.8 25.63 93.03 25.44 93.18 25.2C93.23 25.14 93.27 25.08 93.3 25.02ZM59.2 34.05L59.2 34.89L55.5 34.89L55.5 37.2L57.35 37.2C57.91 37.2 58.39 37.29 58.77 37.48Q59.21 37.69 59.49 38.03Q59.58 38.15 59.65 38.27Q59.66 38.28 59.66 38.28Q59.95 38.79 59.95 39.47C59.95 39.81 59.9 40.12 59.79 40.4C59.67 40.68 59.51 40.93 59.29 41.14C59.06 41.34 58.79 41.5 58.47 41.61C58.15 41.72 57.77 41.78 57.35 41.78L54.48 41.78L54.48 34.05L59.2 34.05ZM63.61 38.47C63.63 38.2 63.69 37.94 63.77 37.7C63.89 37.34 64.06 37.03 64.29 36.77C64.51 36.5 64.79 36.3 65.1 36.15C65.42 36 65.78 35.93 66.18 35.93C66.58 35.93 66.94 36 67.26 36.15C67.58 36.3 67.86 36.5 68.08 36.77C68.31 37.03 68.48 37.34 68.6 37.7C68.72 38.05 68.78 38.43 68.78 38.85L68.78 38.97C68.78 39.38 68.72 39.77 68.6 40.12C68.48 40.48 68.31 40.79 68.09 41.05C67.86 41.31 67.59 41.52 67.27 41.67C66.95 41.81 66.59 41.88 66.19 41.88C65.79 41.88 65.43 41.81 65.11 41.67C64.79 41.52 64.51 41.31 64.29 41.05C64.06 40.79 63.89 40.48 63.77 40.12C63.68 39.86 63.62 39.57 63.6 39.27L62.24 39.27L62.24 41.78L61.27 41.78L61.27 36.03L62.24 36.03L62.24 38.47L63.61 38.47ZM74.8 38.86L74.8 38.97C74.8 39.39 74.75 39.77 74.66 40.13C74.56 40.49 74.41 40.79 74.22 41.06C74.04 41.32 73.81 41.52 73.53 41.67C73.26 41.81 72.95 41.88 72.59 41.88C72.23 41.88 71.91 41.82 71.63 41.7C71.37 41.59 71.15 41.43 70.96 41.22L70.96 43.99L69.98 43.99L69.98 36.03L70.88 36.03L70.93 36.66C71.12 36.42 71.35 36.24 71.63 36.12Q72.04 35.93 72.58 35.93C72.93 35.93 73.25 36 73.53 36.14C73.81 36.28 74.04 36.48 74.23 36.73Q74.51 37.12 74.66 37.66C74.75 38.02 74.8 38.42 74.8 38.86ZM75.79 38.97L75.79 38.85C75.79 38.43 75.85 38.05 75.97 37.7C76.09 37.34 76.26 37.03 76.49 36.77C76.71 36.5 76.98 36.3 77.3 36.15C77.62 36 77.98 35.93 78.38 35.93C78.78 35.93 79.14 36 79.46 36.15C79.78 36.3 80.05 36.5 80.28 36.77C80.51 37.03 80.68 37.34 80.8 37.7C80.92 38.05 80.98 38.43 80.98 38.85L80.98 38.97C80.98 39.38 80.92 39.77 80.8 40.12C80.68 40.48 80.51 40.79 80.28 41.05C80.05 41.31 79.78 41.52 79.46 41.67C79.15 41.81 78.79 41.88 78.39 41.88C77.99 41.88 77.63 41.81 77.31 41.67C76.99 41.52 76.71 41.31 76.49 41.05C76.26 40.79 76.09 40.48 75.97 40.12C75.85 39.77 75.79 39.38 75.79 38.97ZM93.47 41.88C93.08 41.88 92.72 41.82 92.39 41.68C92.07 41.54 91.8 41.35 91.57 41.1C91.34 40.86 91.16 40.56 91.04 40.22C90.92 39.88 90.86 39.51 90.86 39.11L90.86 38.88C90.86 38.42 90.92 38 91.06 37.64C91.2 37.27 91.38 36.96 91.62 36.7C91.85 36.45 92.12 36.25 92.42 36.12C92.72 35.99 93.03 35.93 93.35 35.93C93.76 35.93 94.11 36 94.4 36.14C94.7 36.28 94.94 36.48 95.13 36.73C95.32 36.99 95.46 37.28 95.56 37.63C95.65 37.97 95.69 38.34 95.69 38.74L95.69 39.18L91.84 39.18C91.84 39.43 91.88 39.66 91.95 39.88C92.02 40.11 92.13 40.32 92.28 40.5C92.43 40.68 92.6 40.83 92.81 40.93C93.02 41.03 93.26 41.08 93.53 41.08C93.87 41.08 94.16 41.01 94.4 40.87C94.64 40.73 94.85 40.54 95.03 40.3L95.62 40.77C95.5 40.96 95.34 41.14 95.15 41.31C94.96 41.48 94.73 41.62 94.45 41.72C94.18 41.83 93.85 41.88 93.47 41.88ZM101.65 38.86L101.65 38.97Q101.65 39.6 101.5 40.13C101.4 40.49 101.26 40.79 101.07 41.06C100.88 41.32 100.65 41.52 100.38 41.67C100.1 41.81 99.79 41.88 99.43 41.88C99.07 41.88 98.75 41.82 98.48 41.7C98.21 41.59 97.99 41.43 97.81 41.22L97.81 43.99L96.83 43.99L96.83 36.03L97.72 36.03L97.77 36.66C97.96 36.42 98.2 36.24 98.47 36.12C98.74 35.99 99.06 35.93 99.42 35.93C99.78 35.93 100.1 36 100.37 36.14C100.65 36.28 100.88 36.48 101.07 36.73Q101.36 37.12 101.5 37.66C101.6 38.02 101.65 38.42 101.65 38.86ZM105.26 41.88C104.86 41.88 104.5 41.82 104.18 41.68C103.86 41.54 103.58 41.35 103.35 41.1C103.12 40.86 102.95 40.56 102.82 40.22C102.7 39.88 102.64 39.51 102.64 39.11L102.64 38.88C102.64 38.42 102.71 38 102.84 37.64C102.98 37.27 103.17 36.96 103.4 36.7C103.64 36.45 103.91 36.25 104.2 36.12C104.5 35.99 104.81 35.93 105.13 35.93C105.54 35.93 105.89 36 106.18 36.14C106.48 36.28 106.73 36.48 106.92 36.73C107.11 36.99 107.25 37.28 107.34 37.63C107.43 37.97 107.48 38.34 107.48 38.74L107.48 39.18L103.62 39.18C103.63 39.43 103.66 39.66 103.73 39.88C103.81 40.11 103.92 40.32 104.06 40.5C104.21 40.68 104.39 40.83 104.59 40.93C104.8 41.03 105.04 41.08 105.31 41.08C105.65 41.08 105.95 41.01 106.18 40.87C106.42 40.73 106.63 40.54 106.81 40.3L107.4 40.77C107.28 40.96 107.12 41.14 106.93 41.31C106.74 41.48 106.51 41.62 106.23 41.72C105.96 41.83 105.63 41.88 105.26 41.88ZM114.53 38.97L114.53 38.85C114.53 38.43 114.59 38.05 114.71 37.7C114.83 37.34 115 37.03 115.23 36.77C115.45 36.5 115.72 36.3 116.04 36.15C116.36 36 116.72 35.93 117.12 35.93C117.52 35.93 117.88 36 118.2 36.15C118.52 36.3 118.8 36.5 119.02 36.77C119.25 37.03 119.42 37.34 119.54 37.7C119.66 38.05 119.72 38.43 119.72 38.85L119.72 38.97C119.72 39.38 119.66 39.77 119.54 40.12C119.42 40.48 119.25 40.79 119.02 41.05C118.8 41.31 118.52 41.52 118.2 41.67C117.89 41.81 117.53 41.88 117.13 41.88C116.73 41.88 116.37 41.81 116.05 41.67C115.73 41.52 115.46 41.31 115.23 41.05C115 40.79 114.83 40.48 114.71 40.12C114.59 39.77 114.53 39.38 114.53 38.97ZM126.82 38.97L126.82 38.85C126.82 38.43 126.88 38.05 127 37.7C127.12 37.34 127.29 37.03 127.52 36.77C127.74 36.5 128.01 36.3 128.33 36.15Q128.81 35.93 129.41 35.93C129.81 35.93 130.17 36 130.49 36.15C130.81 36.3 131.09 36.5 131.31 36.77C131.54 37.03 131.71 37.34 131.83 37.7C131.95 38.05 132.01 38.43 132.01 38.85L132.01 38.97C132.01 39.38 131.95 39.77 131.83 40.12C131.71 40.48 131.54 40.79 131.31 41.05C131.09 41.31 130.81 41.52 130.49 41.67Q130.02 41.88 129.42 41.88C129.02 41.88 128.66 41.81 128.34 41.67C128.02 41.52 127.74 41.31 127.52 41.05C127.29 40.79 127.12 40.48 127 40.12C126.88 39.77 126.82 39.38 126.82 38.97ZM85.94 36.85L85.94 41.78L84.96 41.78L84.96 36.03L89.54 36.03L89.54 41.78L88.56 41.78L88.56 36.85L85.94 36.85ZM109.68 41.78L108.7 41.78L108.7 36.03L110.93 36.03C111.29 36.03 111.61 36.07 111.9 36.13C112.19 36.19 112.44 36.29 112.65 36.42C112.85 36.55 113.01 36.71 113.12 36.91C113.23 37.11 113.28 37.34 113.28 37.61C113.28 37.78 113.25 37.95 113.18 38.1C113.11 38.26 113 38.4 112.87 38.52C112.73 38.64 112.56 38.74 112.36 38.81C112.53 38.85 112.69 38.92 112.82 39C113.04 39.13 113.2 39.29 113.31 39.49C113.43 39.69 113.48 39.91 113.48 40.14C113.48 40.41 113.43 40.65 113.33 40.85C113.23 41.06 113.09 41.23 112.9 41.37C112.71 41.5 112.48 41.61 112.21 41.68C111.94 41.74 111.63 41.78 111.29 41.78L109.68 41.78ZM121.59 36.03L125.27 36.03L125.27 40.97L126 40.97L126 43.47L125.02 43.47L125.02 41.78L121.05 41.78L121.05 43.47L120.06 43.47L120.07 40.97L120.52 40.97C120.63 40.83 120.75 40.69 120.86 40.55C120.96 40.4 121.06 40.22 121.16 40.02C121.25 39.82 121.32 39.57 121.38 39.27C121.45 38.97 121.49 38.61 121.5 38.18L121.59 36.03ZM134.3 41.78L133.32 41.78L133.32 36.03L135.55 36.03C135.91 36.03 136.23 36.07 136.52 36.13C136.81 36.19 137.06 36.29 137.27 36.42C137.47 36.55 137.63 36.71 137.74 36.91C137.85 37.11 137.9 37.34 137.9 37.61Q137.9 37.76 137.87 37.91Q137.84 38.01 137.8 38.1C137.73 38.26 137.62 38.4 137.49 38.52C137.35 38.64 137.18 38.74 136.98 38.81C137.15 38.85 137.3 38.92 137.44 39C137.66 39.13 137.82 39.29 137.93 39.49C138.05 39.69 138.1 39.91 138.1 40.14C138.1 40.41 138.05 40.65 137.95 40.85C137.85 41.06 137.71 41.23 137.52 41.37C137.33 41.5 137.1 41.61 136.83 41.68C136.56 41.74 136.25 41.78 135.91 41.78L134.3 41.78ZM64.57 38.85L64.57 38.97C64.57 39.26 64.6 39.53 64.67 39.78C64.74 40.03 64.84 40.26 64.97 40.45C65.11 40.65 65.28 40.8 65.48 40.91C65.68 41.02 65.92 41.08 66.19 41.08C66.46 41.08 66.69 41.02 66.89 40.91C67.1 40.8 67.27 40.65 67.4 40.45C67.53 40.26 67.63 40.03 67.7 39.78Q67.81 39.4 67.81 38.97L67.81 38.85C67.81 38.56 67.77 38.3 67.7 38.05C67.63 37.79 67.53 37.57 67.4 37.37C67.26 37.17 67.09 37.02 66.89 36.9C66.69 36.79 66.45 36.73 66.18 36.73C65.91 36.73 65.68 36.79 65.48 36.9C65.28 37.02 65.11 37.17 64.97 37.37C64.84 37.57 64.74 37.79 64.67 38.05C64.6 38.3 64.57 38.56 64.57 38.85ZM76.76 38.85L76.76 38.97C76.76 39.26 76.8 39.53 76.86 39.78Q76.96 40.16 77.16 40.45C77.3 40.65 77.47 40.8 77.68 40.91C77.88 41.02 78.12 41.08 78.39 41.08C78.65 41.08 78.89 41.02 79.09 40.91C79.29 40.8 79.46 40.65 79.59 40.45C79.73 40.26 79.83 40.03 79.89 39.78C79.96 39.53 80 39.26 80 38.97L80 38.85C80 38.56 79.96 38.3 79.89 38.05C79.83 37.79 79.73 37.57 79.59 37.37C79.46 37.17 79.29 37.02 79.08 36.9Q78.78 36.73 78.38 36.73C78.11 36.73 77.87 36.79 77.67 36.9C77.47 37.02 77.3 37.17 77.16 37.37C77.03 37.57 76.93 37.79 76.86 38.05C76.8 38.3 76.76 38.56 76.76 38.85ZM91.87 38.38L94.72 38.38L94.72 38.31C94.7 38.05 94.65 37.8 94.56 37.56C94.47 37.32 94.33 37.12 94.14 36.97C93.95 36.81 93.68 36.73 93.35 36.73C93.13 36.73 92.92 36.78 92.74 36.88C92.55 36.97 92.39 37.11 92.26 37.29C92.12 37.48 92.02 37.7 91.95 37.97C91.91 38.09 91.88 38.23 91.87 38.38ZM103.65 38.38L106.5 38.38L106.5 38.31C106.49 38.05 106.43 37.8 106.34 37.56C106.26 37.32 106.11 37.12 105.92 36.97C105.73 36.81 105.46 36.73 105.13 36.73C104.91 36.73 104.71 36.78 104.52 36.88C104.33 36.97 104.17 37.11 104.04 37.29C103.91 37.48 103.8 37.7 103.73 37.97C103.69 38.09 103.67 38.23 103.65 38.38ZM115.51 38.85L115.51 38.97C115.51 39.26 115.54 39.53 115.61 39.78C115.67 40.03 115.77 40.26 115.91 40.45C116.04 40.65 116.21 40.8 116.42 40.91C116.62 41.02 116.86 41.08 117.13 41.08C117.4 41.08 117.63 41.02 117.83 40.91C118.03 40.8 118.2 40.65 118.34 40.45C118.47 40.26 118.57 40.03 118.64 39.78C118.71 39.53 118.74 39.26 118.74 38.97L118.74 38.85C118.74 38.56 118.71 38.3 118.64 38.05C118.57 37.79 118.47 37.57 118.33 37.37C118.2 37.17 118.03 37.02 117.83 36.9C117.63 36.79 117.39 36.73 117.12 36.73Q116.72 36.73 116.41 36.9C116.21 37.02 116.04 37.17 115.91 37.37C115.77 37.57 115.67 37.79 115.61 38.05C115.54 38.3 115.51 38.56 115.51 38.85ZM127.8 38.85L127.8 38.97C127.8 39.26 127.83 39.53 127.9 39.78Q128 40.16 128.2 40.45C128.33 40.65 128.5 40.8 128.71 40.91C128.91 41.02 129.15 41.08 129.42 41.08C129.69 41.08 129.92 41.02 130.12 40.91C130.32 40.8 130.49 40.65 130.63 40.45C130.76 40.26 130.86 40.03 130.92 39.78C131 39.53 131.03 39.26 131.03 38.97L131.03 38.85C131.03 38.56 131 38.3 130.92 38.05C130.86 37.79 130.76 37.57 130.62 37.37C130.49 37.17 130.32 37.02 130.11 36.9Q129.81 36.73 129.41 36.73C129.14 36.73 128.91 36.79 128.7 36.9C128.5 37.02 128.33 37.17 128.2 37.37C128.06 37.57 127.96 37.79 127.9 38.05C127.83 38.3 127.8 38.56 127.8 38.85ZM70.96 37.55L70.96 40.29C70.97 40.31 70.99 40.33 71 40.36C71.13 40.57 71.29 40.75 71.51 40.88C71.72 41.01 71.98 41.08 72.3 41.08C72.56 41.08 72.79 41.02 72.98 40.91C73.17 40.8 73.33 40.65 73.46 40.45Q73.64 40.16 73.73 39.78C73.79 39.53 73.82 39.26 73.82 38.97L73.82 38.86C73.82 38.57 73.79 38.3 73.73 38.05C73.67 37.8 73.58 37.57 73.46 37.38C73.33 37.19 73.17 37.04 72.98 36.93C72.79 36.81 72.56 36.76 72.29 36.76C72.04 36.76 71.83 36.8 71.65 36.88C71.47 36.97 71.32 37.08 71.19 37.23C71.1 37.32 71.03 37.43 70.96 37.55ZM97.81 37.55L97.81 40.29Q97.82 40.32 97.84 40.36C97.97 40.57 98.14 40.75 98.35 40.88C98.56 41.01 98.82 41.08 99.14 41.08C99.41 41.08 99.63 41.02 99.82 40.91C100.02 40.8 100.18 40.65 100.3 40.45C100.43 40.26 100.52 40.03 100.58 39.78Q100.67 39.4 100.67 38.97L100.67 38.86Q100.67 38.43 100.58 38.05C100.52 37.8 100.43 37.57 100.3 37.38C100.18 37.19 100.02 37.04 99.82 36.93C99.63 36.81 99.4 36.76 99.13 36.76C98.89 36.76 98.67 36.8 98.49 36.88C98.31 36.97 98.16 37.08 98.03 37.23C97.95 37.32 97.87 37.43 97.81 37.55ZM109.68 38.47L110.94 38.47C111.24 38.47 111.49 38.43 111.69 38.37C111.9 38.31 112.05 38.22 112.15 38.1C112.25 37.98 112.3 37.84 112.3 37.66C112.3 37.52 112.27 37.4 112.21 37.3C112.16 37.19 112.07 37.1 111.95 37.04C111.84 36.97 111.7 36.91 111.52 36.88Q111.27 36.83 110.93 36.83L109.68 36.83L109.68 38.47ZM134.3 38.47L135.56 38.47C135.86 38.47 136.11 38.43 136.31 38.37C136.52 38.31 136.67 38.22 136.77 38.1C136.87 37.98 136.92 37.84 136.92 37.66C136.92 37.52 136.89 37.4 136.83 37.3C136.78 37.19 136.69 37.1 136.57 37.04C136.46 36.97 136.31 36.91 136.14 36.88Q135.89 36.83 135.55 36.83L134.3 36.83L134.3 38.47ZM122.53 36.94L122.48 38.18C122.46 38.73 122.4 39.2 122.3 39.6C122.2 39.99 122.07 40.33 121.91 40.61C121.83 40.74 121.76 40.86 121.67 40.97L124.29 40.97L124.29 36.94L122.53 36.94ZM55.5 38.03L55.5 40.94L57.35 40.94Q57.92 40.94 58.26 40.74C58.5 40.6 58.67 40.41 58.78 40.19C58.89 39.96 58.94 39.72 58.94 39.46C58.94 39.2 58.89 38.96 58.78 38.75C58.67 38.53 58.5 38.36 58.26 38.23C58.03 38.1 57.73 38.03 57.35 38.03L55.5 38.03ZM111.29 39.25L109.68 39.25L109.68 40.98L111.29 40.98C111.56 40.98 111.79 40.95 111.97 40.88C112.14 40.81 112.28 40.71 112.37 40.58C112.46 40.45 112.5 40.3 112.5 40.12C112.5 39.94 112.46 39.78 112.37 39.65C112.28 39.52 112.14 39.42 111.97 39.36C111.79 39.29 111.56 39.25 111.29 39.25ZM135.91 39.25L134.3 39.25L134.3 40.98L135.91 40.98C136.18 40.98 136.41 40.95 136.58 40.88C136.76 40.81 136.9 40.71 136.99 40.58C137.08 40.45 137.12 40.3 137.12 40.12C137.12 39.94 137.08 39.78 136.99 39.65C136.9 39.52 136.76 39.42 136.58 39.36C136.41 39.29 136.18 39.25 135.91 39.25Z" fill="#FFFFFF" fill-opacity="1.000000" fill-rule="evenodd"/>
</svg>
