<svg width="16.011719" height="16.009888" viewBox="0 0 16.0117 16.0099" fill="none" xmlns="http://www.w3.org/2000/svg" xmlns:xlink="http://www.w3.org/1999/xlink">
    <desc>
        Created with Pixso.
    </desc>
    <defs/>
    <path id="Vector" d="M9.41 8L15.71 1.71C15.9 1.52 16 1.27 16 1C16 0.73 15.9 0.48 15.71 0.29C15.52 0.1 15.27 0 15 0C14.73 0 14.48 0.1 14.29 0.29L8 6.59L1.71 0.29C1.52 0.1 1.27 0 1 0C0.73 0 0.48 0.1 0.29 0.29C0.1 0.48 0 0.73 0 1C0 1.27 0.1 1.52 0.29 1.71L6.59 8L0.29 14.29C0.2 14.38 0.12 14.49 0.07 14.61C0.02 14.74 0 14.87 0 15C0 15.13 0.02 15.26 0.07 15.38C0.12 15.51 0.2 15.62 0.29 15.71C0.38 15.8 0.49 15.88 0.62 15.93C0.74 15.98 0.87 16 1 16C1.13 16 1.26 15.98 1.39 15.93C1.51 15.88 1.62 15.8 1.71 15.71L8 9.41L14.29 15.71C14.38 15.8 14.49 15.88 14.62 15.93C14.74 15.98 14.87 16 15 16C15.13 16 15.26 15.98 15.39 15.93C15.51 15.88 15.62 15.8 15.71 15.71C15.8 15.62 15.88 15.51 15.93 15.38C15.98 15.26 16.01 15.13 16.01 15C16.01 14.87 15.98 14.74 15.93 14.61C15.88 14.49 15.8 14.38 15.71 14.29L9.41 8Z" fill="#8896AB" fill-opacity="1.000000" fill-rule="nonzero"/>
</svg>
