<svg width="64.000000" height="64.000000" viewBox="0 0 64 64" fill="none" xmlns="http://www.w3.org/2000/svg" xmlns:xlink="http://www.w3.org/1999/xlink">
    <desc>
        Created with Pixso.
    </desc>
    <defs>
        <clipPath id="clip2668_9274">
            <rect id="protected file / 24 / Outline" rx="0.000000" width="23.000000" height="23.000000" transform="translate(20.500000 20.500000)" fill="white" fill-opacity="0"/>
        </clipPath>
    </defs>
    <rect id="Frame 18" rx="0.000000" width="63.000000" height="63.000000" transform="translate(0.500000 0.500000)" fill="#FFFFFF" fill-opacity="0"/>
    <circle id="Ellipse 6" cx="32.000000" cy="32.000000" r="32.000000" fill="#DFF2FE" fill-opacity="1.000000"/>
    <rect id="Rectangle 19" rx="6.000000" width="64.000000" height="64.000000" fill="#0084D1" fill-opacity="1.000000"/>
    <rect id="protected file / 24 / Outline" rx="0.000000" width="23.000000" height="23.000000" transform="translate(20.500000 20.500000)" fill="#FFFFFF" fill-opacity="0"/>
    <g clip-path="url(#clip2668_9274)">
        <path id="Vector" d="M30.5 40L25.5 40C25.23 40 24.98 39.89 24.79 39.7C24.6 39.51 24.5 39.26 24.5 39L24.5 25C24.5 24.73 24.6 24.48 24.79 24.29C24.98 24.1 25.23 24 25.5 24L30.5 24L30.5 27C30.5 27.79 30.81 28.55 31.37 29.12C31.94 29.68 32.7 30 33.5 30L36.5 30C36.5 30.26 36.6 30.51 36.79 30.7C36.98 30.89 37.23 31 37.5 31C37.76 31 38.01 30.89 38.2 30.7C38.39 30.51 38.5 30.26 38.5 30L38.5 29C38.5 29 38.5 29 38.5 28.93C38.48 28.84 38.46 28.75 38.43 28.66L38.43 28.58C38.39 28.47 38.32 28.38 38.25 28.3L32.25 22.3C32.16 22.22 32.07 22.15 31.97 22.11C31.94 22.1 31.9 22.1 31.88 22.11L31.56 22L25.5 22C24.7 22 23.94 22.31 23.37 22.87C22.81 23.44 22.5 24.2 22.5 25L22.5 39C22.5 39.79 22.81 40.55 23.37 41.12C23.94 41.68 24.7 42 25.5 42L30.5 42C30.76 42 31.01 41.89 31.2 41.7C31.39 41.51 31.5 41.26 31.5 41C31.5 40.73 31.39 40.48 31.2 40.29C31.01 40.1 30.76 40 30.5 40ZM32.5 25.4L35.09 28L33.5 28C33.23 28 32.98 27.89 32.79 27.7C32.6 27.51 32.5 27.26 32.5 27L32.5 25.4ZM27.5 28C27.23 28 26.98 28.1 26.79 28.29C26.6 28.48 26.5 28.73 26.5 29C26.5 29.26 26.6 29.51 26.79 29.7C26.98 29.89 27.23 30 27.5 30L28.5 30C28.76 30 29.01 29.89 29.2 29.7C29.39 29.51 29.5 29.26 29.5 29C29.5 28.73 29.39 28.48 29.2 28.29C29.01 28.1 28.76 28 28.5 28L27.5 28ZM41.13 33.86C41.01 33.76 40.87 33.69 40.73 33.66C40.58 33.63 40.43 33.62 40.29 33.65C39.91 33.74 39.51 33.73 39.14 33.65C38.76 33.57 38.4 33.41 38.09 33.18C37.91 33.06 37.71 32.99 37.5 32.99C37.28 32.99 37.08 33.06 36.91 33.18C36.59 33.41 36.23 33.57 35.85 33.65C35.48 33.73 35.08 33.73 34.71 33.65C34.56 33.62 34.4 33.63 34.26 33.66C34.11 33.7 33.97 33.77 33.86 33.86C33.74 33.96 33.65 34.08 33.59 34.22C33.52 34.35 33.49 34.5 33.5 34.65L33.5 37C33.49 37.71 33.66 38.42 33.98 39.06C34.3 39.7 34.76 40.26 35.34 40.68L36.9 41.8C37.07 41.92 37.28 42 37.5 42C37.71 42 37.92 41.92 38.09 41.8L39.66 40.63C40.22 40.21 40.68 39.66 41 39.03C41.32 38.4 41.49 37.7 41.5 37L41.5 34.62C41.49 34.48 41.46 34.33 41.4 34.2C41.33 34.07 41.24 33.95 41.13 33.86ZM39.5 37C39.5 37.4 39.41 37.79 39.24 38.16C39.07 38.52 38.81 38.84 38.5 39.09L37.5 39.81L36.5 39.09C36.18 38.84 35.92 38.52 35.75 38.16C35.58 37.79 35.49 37.4 35.5 37L35.5 35.72C36.19 35.68 36.88 35.5 37.5 35.16C38.11 35.5 38.8 35.68 39.5 35.72L39.5 37ZM30.5 36.05L27.5 36.05C27.23 36.05 26.98 36.15 26.79 36.34C26.6 36.53 26.5 36.78 26.5 37.05C26.5 37.31 26.6 37.56 26.79 37.75C26.98 37.94 27.23 38.05 27.5 38.05L30.5 38.05C30.76 38.05 31.01 37.94 31.2 37.75C31.39 37.56 31.5 37.31 31.5 37.05C31.5 36.78 31.39 36.53 31.2 36.34C31.01 36.15 30.76 36.05 30.5 36.05ZM31.5 32.05L27.5 32.05C27.23 32.05 26.98 32.15 26.79 32.34C26.6 32.53 26.5 32.78 26.5 33.05C26.5 33.31 26.6 33.56 26.79 33.75C26.98 33.94 27.23 34.05 27.5 34.05L31.5 34.05C31.76 34.05 32.01 33.94 32.2 33.75C32.39 33.56 32.5 33.31 32.5 33.05C32.5 32.78 32.39 32.53 32.2 32.34C32.01 32.15 31.76 32.05 31.5 32.05Z" fill="#FFFFFF" fill-opacity="1.000000" fill-rule="nonzero"/>
    </g>
</svg>
