<svg width="64.000000" height="64.000000" viewBox="0 0 64 64" fill="none" xmlns="http://www.w3.org/2000/svg" xmlns:xlink="http://www.w3.org/1999/xlink">
    <desc>
        Created with Pixso.
    </desc>
    <defs>
        <clipPath id="clip2668_9281">
            <rect id="health / 24 / Outline" rx="0.000000" width="23.000000" height="23.000000" transform="translate(20.500000 20.500000)" fill="white" fill-opacity="0"/>
        </clipPath>
    </defs>
    <rect id="Frame 18" rx="0.000000" width="63.000000" height="63.000000" transform="translate(0.500000 0.500000)" fill="#FFFFFF" fill-opacity="0"/>
    <rect id="Rectangle 19" rx="6.000000" width="64.000000" height="64.000000" fill="#0084D1" fill-opacity="1.000000"/>
    <rect id="health / 24 / Outline" rx="0.000000" width="23.000000" height="23.000000" transform="translate(20.500000 20.500000)" fill="#FFFFFF" fill-opacity="0"/>
    <g clip-path="url(#clip2668_9281)">
        <path id="Vector" d="M39 22L25 22C24.2 22 23.44 22.31 22.87 22.87C22.31 23.44 22 24.2 22 25L22 39C22 39.79 22.31 40.55 22.87 41.12C23.44 41.68 24.2 42 25 42L39 42C39.79 42 40.55 41.68 41.12 41.12C41.68 40.55 42 39.79 42 39L42 25C42 24.2 41.68 23.44 41.12 22.87C40.55 22.31 39.79 22 39 22ZM40 39C40 39.26 39.89 39.51 39.7 39.7C39.51 39.89 39.26 40 39 40L25 40C24.73 40 24.48 39.89 24.29 39.7C24.1 39.51 24 39.26 24 39L24 25C24 24.73 24.1 24.48 24.29 24.29C24.48 24.1 24.73 24 25 24L39 24C39.26 24 39.51 24.1 39.7 24.29C39.89 24.48 40 24.73 40 25L40 39ZM37 29L35 29L35 27C35 26.73 34.89 26.48 34.7 26.29C34.51 26.1 34.26 26 34 26L30 26C29.73 26 29.48 26.1 29.29 26.29C29.1 26.48 29 26.73 29 27L29 29L27 29C26.73 29 26.48 29.1 26.29 29.29C26.1 29.48 26 29.73 26 30L26 34C26 34.26 26.1 34.51 26.29 34.7C26.48 34.89 26.73 35 27 35L29 35L29 37C29 37.26 29.1 37.51 29.29 37.7C29.48 37.89 29.73 38 30 38L34 38C34.26 38 34.51 37.89 34.7 37.7C34.89 37.51 35 37.26 35 37L35 35L37 35C37.26 35 37.51 34.89 37.7 34.7C37.89 34.51 38 34.26 38 34L38 30C38 29.73 37.89 29.48 37.7 29.29C37.51 29.1 37.26 29 37 29ZM36 33L34 33C33.73 33 33.48 33.1 33.29 33.29C33.1 33.48 33 33.73 33 34L33 36L31 36L31 34C31 33.73 30.89 33.48 30.7 33.29C30.51 33.1 30.26 33 30 33L28 33L28 31L30 31C30.26 31 30.51 30.89 30.7 30.7C30.89 30.51 31 30.26 31 30L31 28L33 28L33 30C33 30.26 33.1 30.51 33.29 30.7C33.48 30.89 33.73 31 34 31L36 31L36 33Z" fill="#FFFFFF" fill-opacity="1.000000" fill-rule="nonzero"/>
    </g>
</svg>
