<svg width="64.000000" height="64.000000" viewBox="0 0 64 64" fill="none" xmlns="http://www.w3.org/2000/svg" xmlns:xlink="http://www.w3.org/1999/xlink">
    <desc>
        Created with Pixso.
    </desc>
    <defs>
        <clipPath id="clip2668_9266">
            <rect id="ruler / 24 / Outline" rx="0.000000" width="23.000000" height="23.000000" transform="translate(20.500000 20.500000)" fill="white" fill-opacity="0"/>
        </clipPath>
    </defs>
    <rect id="Frame 18" rx="0.000000" width="63.000000" height="63.000000" transform="translate(0.500000 0.500000)" fill="#FFFFFF" fill-opacity="0"/>
    <rect id="Rectangle 19" rx="6.000000" width="64.000000" height="64.000000" fill="#0084D1" fill-opacity="1.000000"/>
    <rect id="ruler / 24 / Outline" rx="0.000000" width="23.000000" height="23.000000" transform="translate(20.500000 20.500000)" fill="#FFFFFF" fill-opacity="0"/>
    <g clip-path="url(#clip2668_9266)">
        <path id="Vector" d="M42.61 27.05L37 21.39C36.9 21.29 36.79 21.22 36.67 21.17C36.55 21.12 36.42 21.09 36.29 21.1C36.02 21.1 35.77 21.2 35.59 21.39L21.39 35.54C21.2 35.72 21.09 35.98 21.09 36.24C21.09 36.5 21.2 36.76 21.39 36.95L27.05 42.61C27.14 42.7 27.25 42.77 27.37 42.82C27.49 42.87 27.62 42.9 27.76 42.9C28.02 42.89 28.27 42.79 28.46 42.61L31.29 39.78L39.78 31.29L42.61 28.46C42.79 28.27 42.9 28.01 42.9 27.75C42.9 27.49 42.79 27.23 42.61 27.05ZM39.07 29.17L38.36 28.46C38.17 28.27 37.91 28.16 37.65 28.16C37.39 28.16 37.13 28.27 36.95 28.46C36.85 28.55 36.78 28.66 36.73 28.78C36.68 28.9 36.65 29.03 36.65 29.17C36.65 29.3 36.68 29.43 36.73 29.55C36.78 29.67 36.85 29.78 36.95 29.88L37.66 30.59L36.24 32L34.12 29.88C33.92 29.71 33.68 29.63 33.43 29.64C33.17 29.65 32.94 29.75 32.76 29.93C32.58 30.11 32.48 30.34 32.47 30.6C32.46 30.85 32.54 31.09 32.71 31.29L34.83 33.41L33.41 34.83L32.71 34.12C32.52 33.93 32.26 33.82 32 33.82C31.73 33.82 31.47 33.93 31.29 34.12C31.1 34.3 30.99 34.56 30.99 34.83C30.99 35.09 31.1 35.35 31.29 35.54L32 36.24L30.59 37.66L28.46 35.54C28.27 35.35 28.01 35.24 27.75 35.24C27.49 35.24 27.23 35.35 27.05 35.54C26.86 35.72 26.75 35.98 26.75 36.24C26.75 36.5 26.86 36.76 27.05 36.95L29.17 39.07L27.76 40.49L23.51 36.24L36.24 23.51L40.49 27.76L39.07 29.17Z" fill="#FFFFFF" fill-opacity="1.000000" fill-rule="nonzero"/>
    </g>
</svg>
